Genre:Mystery | Sci-Fi | Thriller
Language:English
IMDb:http://www.imdb.com/title/tt1650062/
Source:BluRay.1080p Thanks!

Format : MPEG-4
Format profile : Base Media
Codec ID : isom
File size : 2.66 GiB
Duration : 1h 51mn
Overall bit rate : 3 404 Kbps

Video
ID : 1
Format : AVC
Format/Info : Advanced Video Codec
Format profile : High@L4.1
Format settings, CABAC : Yes
Format settings, ReFrames : 3 frames
Codec ID : avc1
Codec ID/Info : Advanced Video Coding
Duration : 1h 51mn
Bit rate mode : Variable
Bit rate : 3 000 Kbps
Maximum bit rate : 10.9 Mbps
Width : 1 280 pixels
Height : 528 pixels
Display aspect ratio : 2.40:1
Frame rate mode : Constant
Frame rate : 23.976 fps
Color space : YUV
Chroma subsampling : 4:2:0
Bit depth : 8 bits
Scan type : Progressive
Bits/(Pixel*Frame) : 0.185
Stream size : 2.32 GiB (87%)
Writing library : x264


Audio
ID : 2
Format : AAC
Format/Info : Advanced Audio Codec
Format version : Version 4
Format profile : LC
Format settings, SBR : No
Codec ID : 40
Duration : 1h 51mn
Bit rate mode : Variable
Bit rate : 429 Kbps
Maximum bit rate : 541 Kbps
Channel(s) : 6 channels
Channel positions : Front: L C R, Side: L R, LFE
Sampling rate : 48.0 KHz
Stream size : 343 MiB (13%)



Plot:
After witnessing a mysterious train crash, a group of friends in the summer of 1979 begin noticing strange happenings going around in their small town, and begin to investigate into the creepy phenomenon.



Screens :
 
http://www.pix2links.com/image/16NZ.png
 
http://www.pix2links.com/image/DZ6s5.png
 
http://www.pix2links.com/image/upaAk.png
 
http://www.pix2links.com/image/cJl8D.png
 
http://www.pix2links.com/image/vZpyP.png